<svg width="134" height="38" viewBox="0 0 134 38" fill="none" xmlns="http://www.w3.org/2000/svg">
<rect width="38" height="38" rx="19" fill="#1E99F5"/>
<path d="M18.0195 19.4727L18.8516 18.5352H20.0938L21.5703 11.0703C19.9688 11.0703 18.668 11.5039 17.668 12.3711C16.6758 13.2305 16.1797 14.3555 16.1797 15.7461L16.1914 16.0039L13.9062 17.1055C14.1094 14.707 15.0391 12.9492 16.6953 11.832C18.3594 10.7148 20.8672 10.1562 24.2188 10.1562H30.9805L29.9258 13.4727H29.1758C29.2773 13.1602 29.3281 12.8516 29.3281 12.5469C29.3281 11.5312 27.7305 11.0234 24.5352 11.0234H24.0312L22.543 18.5352H27.6523L26.4922 19.7305C25.2422 19.5586 24.0547 19.4727 22.9297 19.4727H22.3555L21.6758 22.9062C21.1055 25.7969 20 28.1055 18.3594 29.832C16.7266 31.5586 14.8242 32.4219 12.6523 32.4219C11.4805 32.4219 10.4336 31.9805 9.51172 31.0977L11.2344 29.3398C11.8516 30.6211 12.8438 31.2617 14.2109 31.2617C15.4609 31.2617 16.4414 30.6953 17.1523 29.5625C17.8711 28.4375 18.5156 26.4414 19.0859 23.5742L19.9062 19.4727H18.0195Z" fill="black"/>
<path d="M45.2642 26V11.4545H54.8949V13.9901H48.3395V17.456H54.2557V19.9915H48.3395V26H45.2642ZM63.2188 21.3551V15.0909H66.2443V26H63.3395V24.0185H63.2259C62.9796 24.6577 62.5701 25.1714 61.9972 25.5597C61.429 25.9479 60.7353 26.142 59.9162 26.142C59.187 26.142 58.5455 25.9763 57.9915 25.6449C57.4375 25.3134 57.0043 24.8423 56.6918 24.2315C56.384 23.6207 56.2277 22.8892 56.223 22.0369V15.0909H59.2486V21.4972C59.2533 22.1411 59.4261 22.6501 59.767 23.0241C60.108 23.3982 60.5649 23.5852 61.1378 23.5852C61.5024 23.5852 61.8433 23.5024 62.1605 23.3366C62.4777 23.1662 62.7334 22.9152 62.9276 22.5838C63.1264 22.2524 63.2235 21.8428 63.2188 21.3551ZM68.6644 26V15.0909H71.5977V16.9943H71.7113C71.9102 16.3172 72.244 15.8059 72.7127 15.4602C73.1815 15.1098 73.7212 14.9347 74.332 14.9347C74.4835 14.9347 74.6469 14.9441 74.8221 14.9631C74.9973 14.982 75.1512 15.008 75.2837 15.0412V17.7259C75.1417 17.6832 74.9452 17.6454 74.6942 17.6122C74.4433 17.5791 74.2137 17.5625 74.0053 17.5625C73.5603 17.5625 73.1625 17.6596 72.8121 17.8537C72.4665 18.0431 72.1919 18.3082 71.9883 18.6491C71.7894 18.9901 71.69 19.383 71.69 19.8281V26H68.6644ZM79.8736 19.6932V26H76.848V15.0909H79.7315V17.0156H79.8594C80.1009 16.3812 80.5057 15.8793 81.0739 15.5099C81.642 15.1359 82.331 14.9489 83.1406 14.9489C83.8982 14.9489 84.5587 15.1146 85.1222 15.446C85.6856 15.7775 86.1236 16.2509 86.4361 16.8665C86.7486 17.4773 86.9048 18.2064 86.9048 19.054V26H83.8793V19.5938C83.884 18.9261 83.7135 18.4053 83.3679 18.0312C83.0223 17.6525 82.5464 17.4631 81.9403 17.4631C81.5331 17.4631 81.1733 17.5507 80.8608 17.7259C80.553 17.901 80.3116 18.1567 80.1364 18.4929C79.9659 18.8243 79.8783 19.2244 79.8736 19.6932ZM89.2894 26V15.0909H92.315V26H89.2894ZM90.8093 13.6847C90.3595 13.6847 89.9736 13.5355 89.6516 13.2372C89.3344 12.9342 89.1758 12.572 89.1758 12.1506C89.1758 11.7339 89.3344 11.3764 89.6516 11.0781C89.9736 10.7751 90.3595 10.6236 90.8093 10.6236C91.2591 10.6236 91.6426 10.7751 91.9599 11.0781C92.2818 11.3764 92.4428 11.7339 92.4428 12.1506C92.4428 12.572 92.2818 12.9342 91.9599 13.2372C91.6426 13.5355 91.2591 13.6847 90.8093 13.6847Z" fill="white"/>
<path d="M94.7955 26V11.4545H104.426V13.9901H97.8707V17.456H103.787V19.9915H97.8707V26H94.7955ZM109.463 11.4545V26H106.438V11.4545H109.463ZM116.859 26.2131C115.737 26.2131 114.771 25.9858 113.961 25.5312C113.156 25.072 112.536 24.4233 112.1 23.5852C111.665 22.7424 111.447 21.7457 111.447 20.5952C111.447 19.473 111.665 18.4882 112.1 17.6406C112.536 16.7931 113.149 16.1326 113.94 15.6591C114.735 15.1856 115.668 14.9489 116.738 14.9489C117.458 14.9489 118.128 15.0649 118.748 15.2969C119.373 15.5241 119.917 15.8674 120.381 16.3267C120.85 16.786 121.215 17.3636 121.475 18.0597C121.736 18.7509 121.866 19.5606 121.866 20.4886V21.3196H112.654V19.4446H119.018C119.018 19.009 118.923 18.6231 118.734 18.2869C118.544 17.9508 118.281 17.688 117.945 17.4986C117.614 17.3045 117.228 17.2074 116.788 17.2074C116.328 17.2074 115.921 17.3139 115.566 17.527C115.216 17.7353 114.941 18.017 114.742 18.3722C114.543 18.7225 114.442 19.1132 114.437 19.544V21.3267C114.437 21.8665 114.536 22.3329 114.735 22.7259C114.939 23.1188 115.225 23.4219 115.594 23.6349C115.964 23.848 116.402 23.9545 116.908 23.9545C117.245 23.9545 117.552 23.9072 117.832 23.8125C118.111 23.7178 118.35 23.5758 118.549 23.3864C118.748 23.197 118.899 22.965 119.004 22.6903L121.802 22.875C121.66 23.5473 121.369 24.1345 120.928 24.6364C120.493 25.1335 119.929 25.5218 119.238 25.8011C118.551 26.0758 117.758 26.2131 116.859 26.2131ZM126.173 15.0909L128.176 18.9048L130.229 15.0909H133.332L130.172 20.5455L133.418 26H130.328L128.176 22.2287L126.06 26H122.935L126.173 20.5455L123.048 15.0909H126.173Z" fill="#1E99F5"/>
</svg>
