<svg width="20" height="20" viewBox="0 0 20 20" fill="none" xmlns="http://www.w3.org/2000/svg">
<path fill-rule="evenodd" clip-rule="evenodd" d="M5.15282 8.61043C4.33802 8.61043 4.16797 8.77035 4.16797 9.53635V10.9253C4.16797 11.6913 4.33802 11.8512 5.15282 11.8512H7.12251V17.4068C7.12251 18.1728 7.29256 18.3327 8.10736 18.3327H10.0771C10.8919 18.3327 11.0619 18.1728 11.0619 17.4068V11.8512H13.2736C13.8916 11.8512 14.0508 11.7383 14.2206 11.1797L14.6426 9.79077C14.9334 8.83385 14.7542 8.61043 13.6956 8.61043H11.0619V6.29565C11.0619 5.78427 11.5028 5.36972 12.0467 5.36972H14.8498C15.6646 5.36972 15.8346 5.20984 15.8346 4.44379V2.59194C15.8346 1.82589 15.6646 1.66602 14.8498 1.66602H12.0467C9.32714 1.66602 7.12251 3.73877 7.12251 6.29565V8.61043H5.15282Z" stroke="#DFDFDF" stroke-width="1.42857" stroke-linejoin="round"/>
</svg>
