<svg width="24" height="25" viewBox="0 0 24 25" fill="none" xmlns="http://www.w3.org/2000/svg">
<path d="M21.8055 10.3623H21V10.3208H12V14.3208H17.6515C16.827 16.6493 14.6115 18.3208 12 18.3208C8.6865 18.3208 6 15.6343 6 12.3208C6 9.0073 8.6865 6.3208 12 6.3208C13.5295 6.3208 14.921 6.8978 15.9805 7.8403L18.809 5.0118C17.023 3.3473 14.634 2.3208 12 2.3208C6.4775 2.3208 2 6.7983 2 12.3208C2 17.8433 6.4775 22.3208 12 22.3208C17.5225 22.3208 22 17.8433 22 12.3208C22 11.6503 21.931 10.9958 21.8055 10.3623Z" fill="#FFC107"/>
<path d="M3.15234 7.6663L6.43784 10.0758C7.32684 7.8748 9.47984 6.3208 11.9993 6.3208C13.5288 6.3208 14.9203 6.8978 15.9798 7.8403L18.8083 5.0118C17.0223 3.3473 14.6333 2.3208 11.9993 2.3208C8.15834 2.3208 4.82734 4.4893 3.15234 7.6663Z" fill="#FF3D00"/>
<path d="M12.0002 22.3211C14.5832 22.3211 16.9302 21.3326 18.7047 19.7251L15.6097 17.1061C14.6057 17.8666 13.3577 18.3211 12.0002 18.3211C9.39916 18.3211 7.19066 16.6626 6.35866 14.3481L3.09766 16.8606C4.75266 20.0991 8.11366 22.3211 12.0002 22.3211Z" fill="#4CAF50"/>
<path d="M21.8055 10.3623H21V10.3208H12V14.3208H17.6515C17.2555 15.4393 16.536 16.4038 15.608 17.1063L15.6095 17.1053L18.7045 19.7243C18.4855 19.9233 22 17.3208 22 12.3208C22 11.6503 21.931 10.9958 21.8055 10.3623Z" fill="#1976D2"/>
</svg>
