<svg width="21" height="20" viewBox="0 0 21 20" fill="none" xmlns="http://www.w3.org/2000/svg">
<path d="M2.51074 9.99772C2.51074 6.26577 2.51074 4.3998 3.67011 3.24042C4.82948 2.08105 6.69546 2.08105 10.4274 2.08105C14.1593 2.08105 16.0253 2.08105 17.1847 3.24042C18.3441 4.3998 18.3441 6.26577 18.3441 9.99772C18.3441 13.7296 18.3441 15.5956 17.1847 16.7551C16.0253 17.9144 14.1593 17.9144 10.4274 17.9144C6.69546 17.9144 4.82948 17.9144 3.67011 16.7551C2.51074 15.5956 2.51074 13.7296 2.51074 9.99772Z" stroke="#DFDFDF" stroke-width="1.42857" stroke-linejoin="round"/>
<path d="M14.1787 10C14.1787 12.0711 12.4998 13.75 10.4287 13.75C8.35764 13.75 6.67871 12.0711 6.67871 10C6.67871 7.92893 8.35764 6.25 10.4287 6.25C12.4998 6.25 14.1787 7.92893 14.1787 10Z" stroke="#DFDFDF" stroke-width="1.42857"/>
<path d="M15.0182 5.41553H15.0107" stroke="#DFDFDF" stroke-width="1.42857" stroke-linecap="round" stroke-linejoin="round"/>
</svg>
