<svg width="21" height="20" viewBox="0 0 21 20" fill="none" xmlns="http://www.w3.org/2000/svg">
<path d="M4.03743 7.91589H3.62077C2.83509 7.91589 2.44226 7.91589 2.19818 8.15997C1.9541 8.40406 1.9541 8.79689 1.9541 9.58256V16.6659C1.9541 17.4516 1.9541 17.8444 2.19818 18.0885C2.44226 18.3326 2.83509 18.3326 3.62077 18.3326H4.03743C4.82311 18.3326 5.21594 18.3326 5.46003 18.0885C5.7041 17.8444 5.7041 17.4516 5.7041 16.6659V9.58256C5.7041 8.79689 5.7041 8.40406 5.46003 8.15997C5.21594 7.91589 4.82311 7.91589 4.03743 7.91589Z" stroke="#DFDFDF" stroke-width="1.42857"/>
<path d="M5.7041 3.54089C5.7041 4.57643 4.86463 5.41589 3.8291 5.41589C2.79357 5.41589 1.9541 4.57643 1.9541 3.54089C1.9541 2.50536 2.79357 1.66589 3.8291 1.66589C4.86463 1.66589 5.7041 2.50536 5.7041 3.54089Z" stroke="#DFDFDF" stroke-width="1.42857"/>
<path d="M10.5591 7.91589H9.87077C9.0851 7.91589 8.69227 7.91589 8.44818 8.15997C8.2041 8.40406 8.2041 8.79689 8.2041 9.58256V16.6659C8.2041 17.4516 8.2041 17.8444 8.44818 18.0885C8.69227 18.3326 9.0851 18.3326 9.87077 18.3326H10.2874C11.0731 18.3326 11.4659 18.3326 11.71 18.0885C11.9541 17.8444 11.9541 17.4516 11.9541 16.6659L11.9542 13.7493C11.9542 12.3686 12.3942 11.2493 13.694 11.2493C14.3439 11.2493 14.8708 11.809 14.8708 12.4993V16.2493C14.8708 17.035 14.8708 17.4278 15.1149 17.6719C15.3589 17.916 15.7518 17.916 16.5374 17.916H16.953C17.7385 17.916 18.1313 17.916 18.3754 17.672C18.6194 17.428 18.6195 17.0352 18.6197 16.2497L18.6209 11.6661C18.6209 9.59506 16.6511 7.91609 14.7014 7.91609C13.5915 7.91609 12.6014 8.46014 11.9542 9.31089C11.9541 8.78581 11.9541 8.52331 11.8401 8.32839C11.7679 8.20494 11.665 8.10217 11.5416 8.02995C11.3467 7.91589 11.0842 7.91589 10.5591 7.91589Z" stroke="#DFDFDF" stroke-width="1.42857" stroke-linejoin="round"/>
</svg>
