<svg width="181" height="139" viewBox="0 0 181 139" fill="none" xmlns="http://www.w3.org/2000/svg">
<rect x="46" width="89" height="85" rx="42" fill="#1E99F5"/>
<path d="M85.7793 39.959L87.0273 38.5527H88.8906L91.1055 27.3555C88.7031 27.3555 86.752 28.0059 85.252 29.3066C83.7637 30.5957 83.0195 32.2832 83.0195 34.3691L83.0371 34.7559L79.6094 36.4082C79.9141 32.8105 81.3086 30.1738 83.793 28.498C86.2891 26.8223 90.0508 25.9844 95.0781 25.9844H105.221L103.639 30.959H102.514C102.666 30.4902 102.742 30.0273 102.742 29.5703C102.742 28.0469 100.346 27.2852 95.5527 27.2852H94.7969L92.5645 38.5527H100.229L98.4883 40.3457C96.6133 40.0879 94.832 39.959 93.1445 39.959H92.2832L91.2637 45.1094C90.4082 49.4453 88.75 52.9082 86.2891 55.498C83.8398 58.0879 80.9863 59.3828 77.7285 59.3828C75.9707 59.3828 74.4004 58.7207 73.0176 57.3965L75.6016 54.7598C76.5273 56.6816 78.0156 57.6426 80.0664 57.6426C81.9414 57.6426 83.4121 56.793 84.4785 55.0938C85.5566 53.4062 86.5234 50.4121 87.3789 46.1113L88.6094 39.959H85.7793Z" fill="black"/>
<path d="M3.02841 130V100.909H22.2898V105.98H9.17898V112.912H21.0114V117.983H9.17898V130H3.02841ZM38.9375 120.71V108.182H44.9886V130H39.179V126.037H38.9517C38.4593 127.315 37.6402 128.343 36.4943 129.119C35.358 129.896 33.9706 130.284 32.3324 130.284C30.8741 130.284 29.5909 129.953 28.483 129.29C27.375 128.627 26.5085 127.685 25.8835 126.463C25.268 125.241 24.9555 123.778 24.946 122.074V108.182H30.9972V120.994C31.0066 122.282 31.3523 123.3 32.0341 124.048C32.7159 124.796 33.6297 125.17 34.7756 125.17C35.5047 125.17 36.1866 125.005 36.821 124.673C37.4555 124.332 37.9669 123.83 38.3551 123.168C38.7528 122.505 38.947 121.686 38.9375 120.71ZM49.8288 130V108.182H55.6953V111.989H55.9226C56.3203 110.634 56.9879 109.612 57.9254 108.92C58.8629 108.22 59.9425 107.869 61.1641 107.869C61.4671 107.869 61.7938 107.888 62.1442 107.926C62.4946 107.964 62.8023 108.016 63.0675 108.082V113.452C62.7834 113.366 62.3904 113.291 61.8885 113.224C61.3866 113.158 60.9273 113.125 60.5107 113.125C59.6205 113.125 58.825 113.319 58.1243 113.707C57.433 114.086 56.8838 114.616 56.4766 115.298C56.0788 115.98 55.88 116.766 55.88 117.656V130H49.8288ZM72.2472 117.386V130H66.196V108.182H71.9631V112.031H72.2188C72.7017 110.762 73.5114 109.759 74.6477 109.02C75.7841 108.272 77.1619 107.898 78.7812 107.898C80.2964 107.898 81.6174 108.229 82.7443 108.892C83.8712 109.555 84.7472 110.502 85.3722 111.733C85.9972 112.955 86.3097 114.413 86.3097 116.108V130H80.2585V117.188C80.268 115.852 79.9271 114.811 79.2358 114.062C78.5445 113.305 77.5928 112.926 76.3807 112.926C75.5663 112.926 74.8466 113.101 74.2216 113.452C73.6061 113.802 73.1231 114.313 72.7727 114.986C72.4318 115.649 72.2566 116.449 72.2472 117.386ZM91.0788 130V108.182H97.13V130H91.0788ZM94.1186 105.369C93.219 105.369 92.4472 105.071 91.8033 104.474C91.1688 103.868 90.8516 103.144 90.8516 102.301C90.8516 101.468 91.1688 100.753 91.8033 100.156C92.4472 99.5502 93.219 99.2472 94.1186 99.2472C95.0182 99.2472 95.7853 99.5502 96.4197 100.156C97.0637 100.753 97.3857 101.468 97.3857 102.301C97.3857 103.144 97.0637 103.868 96.4197 104.474C95.7853 105.071 95.0182 105.369 94.1186 105.369Z" fill="white"/>
<path d="M102.091 130V100.909H121.352V105.98H108.241V112.912H120.074V117.983H108.241V130H102.091ZM131.427 100.909V130H125.376V100.909H131.427ZM146.217 130.426C143.973 130.426 142.041 129.972 140.422 129.062C138.812 128.144 137.571 126.847 136.7 125.17C135.829 123.485 135.393 121.491 135.393 119.19C135.393 116.946 135.829 114.976 136.7 113.281C137.571 111.586 138.798 110.265 140.379 109.318C141.97 108.371 143.836 107.898 145.976 107.898C147.415 107.898 148.755 108.13 149.996 108.594C151.246 109.048 152.335 109.735 153.263 110.653C154.2 111.572 154.929 112.727 155.45 114.119C155.971 115.502 156.232 117.121 156.232 118.977V120.639H137.808V116.889H150.536C150.536 116.018 150.346 115.246 149.967 114.574C149.589 113.902 149.063 113.376 148.391 112.997C147.728 112.609 146.956 112.415 146.075 112.415C145.157 112.415 144.342 112.628 143.632 113.054C142.931 113.471 142.382 114.034 141.984 114.744C141.587 115.445 141.383 116.226 141.374 117.088V120.653C141.374 121.733 141.572 122.666 141.97 123.452C142.377 124.238 142.95 124.844 143.689 125.27C144.428 125.696 145.304 125.909 146.317 125.909C146.989 125.909 147.605 125.814 148.163 125.625C148.722 125.436 149.2 125.152 149.598 124.773C149.996 124.394 150.299 123.93 150.507 123.381L156.104 123.75C155.82 125.095 155.237 126.269 154.357 127.273C153.485 128.267 152.358 129.044 150.976 129.602C149.603 130.152 148.017 130.426 146.217 130.426ZM164.847 108.182L168.852 115.81L172.957 108.182H179.165L172.844 119.091L179.335 130H173.156L168.852 122.457L164.619 130H158.369L164.847 119.091L158.597 108.182H164.847Z" fill="#1E99F5"/>
</svg>
